<?xml version="1.0" standalone="no"?><!DOCTYPE svg PUBLIC "-//W3C//DTD SVG 1.1//EN" "http://www.w3.org/Graphics/SVG/1.1/DTD/svg11.dtd"><svg t="1723360799053" class="icon" viewBox="0 0 1024 1024" version="1.1" xmlns="http://www.w3.org/2000/svg" p-id="7389" id="mx_n_1723360799054" xmlns:xlink="http://www.w3.org/1999/xlink" width="256" height="256"><path d="M485.547 28.501a52.48 52.48 0 0 1 52.906 0l93.355 54.528a53.632 53.632 0 0 1 25.899 32.982 55.723 55.723 0 0 1-4.95 42.026 52.864 52.864 0 0 1-53.973 26.88 52.608 52.608 0 0 1-19.883-7.253L512 138.667l-66.859 39.04a52.608 52.608 0 0 1-73.856-19.627 55.339 55.339 0 0 1 20.907-75.008l93.355-54.57zM278.315 212.352c6.997 12.544 8.832 27.435 5.12 41.387a54.357 54.357 0 0 1-24.96 32.938l-12.288 7.254 12.288 7.168a54.955 54.955 0 0 1 27.605 54.528 55.339 55.339 0 0 1-20.565 36.693 52.864 52.864 0 0 1-40.107 10.667 52.608 52.608 0 0 1-19.84-7.254L192 387.84v15.104c0 14.421-5.632 28.288-15.616 38.528-10.027 10.24-23.552 15.957-37.717 15.957-14.166 0-27.734-5.717-37.718-15.957a55.125 55.125 0 0 1-15.616-38.528V293.888c0-9.813 2.56-19.413 7.424-27.819a53.591 53.591 0 0 1 20.31-20.053l92.501-53.973a52.256 52.256 0 0 1 40.448-5.248c13.653 3.84 25.259 13.013 32.299 25.557z m467.413 0c6.997-12.544 18.603-21.76 32.256-25.557 13.653-3.798 28.16-1.92 40.49 5.248l92.417 53.973c8.405 4.693 15.402 11.648 20.309 20.053a55.69 55.69 0 0 1 7.467 27.819v109.056c0 14.421-5.632 28.288-15.616 38.528-9.984 10.24-23.552 15.957-37.718 15.957-14.122 0-27.733-5.717-37.717-15.957A55.125 55.125 0 0 1 832 402.944V387.84l-13.525 7.893a52.565 52.565 0 0 1-73.856-19.626 55.381 55.381 0 0 1 20.906-75.008l12.288-7.211-12.245-7.21a54.4 54.4 0 0 1-25.003-32.982 55.595 55.595 0 0 1 5.12-41.387zM372.395 430.379c6.997-12.544 18.602-21.718 32.256-25.515 13.653-3.84 28.16-1.92 40.49 5.248L512 449.152l66.901-39.04a52.608 52.608 0 0 1 73.814 19.627 55.381 55.381 0 0 1-20.907 75.008l-66.475 38.826v77.398c0 14.506-5.632 28.33-15.616 38.57-9.984 10.24-23.552 15.958-37.717 15.958s-27.733-5.718-37.717-15.958a55.125 55.125 0 0 1-15.616-38.57v-77.398l-66.432-38.826a54.357 54.357 0 0 1-25.003-32.982 55.595 55.595 0 0 1 5.12-41.386zM138.667 566.485c14.165 0 27.733 5.718 37.717 15.958C186.368 592.683 192 606.549 192 620.97v77.44l66.475 38.826a53.675 53.675 0 0 1 25.898 32.982 55.68 55.68 0 0 1-4.992 41.984 52.907 52.907 0 0 1-53.973 26.88 52.608 52.608 0 0 1-19.84-7.254l-93.355-54.442a53.888 53.888 0 0 1-19.669-19.968 55.467 55.467 0 0 1-7.21-27.392V620.97c0-14.422 5.631-28.288 15.615-38.528 10.027-10.24 23.552-15.958 37.718-15.958z m746.666 0c14.166 0 27.734 5.718 37.718 15.958 9.984 10.24 15.616 24.106 15.616 38.528v109.056a55.467 55.467 0 0 1-7.211 27.306 53.662 53.662 0 0 1-19.67 20.011l-93.311 54.528a52.565 52.565 0 0 1-73.856-19.627 55.381 55.381 0 0 1 20.906-75.05L832 698.368v-77.397c0-14.422 5.632-28.288 15.616-38.528 10.027-10.24 23.595-15.958 37.717-15.958zM372.395 866.517c6.997-12.544 18.602-21.76 32.256-25.514 13.653-3.84 28.16-1.92 40.49 5.248l13.526 7.893V839.04c0-14.464 5.632-28.33 15.616-38.528 10.026-10.24 23.552-15.957 37.717-15.957s27.733 5.717 37.717 15.957c9.984 10.24 15.616 24.064 15.616 38.528v15.104l13.568-7.893a52.608 52.608 0 0 1 73.814 19.626 55.381 55.381 0 0 1-20.907 75.008l-92.587 54.059a52.139 52.139 0 0 1-54.485 0l-92.501-54.059a54.357 54.357 0 0 1-25.003-32.981 55.595 55.595 0 0 1 5.12-41.387z" fill="#8b6af0" p-id="7390"></path></svg>